<svg version="1" xmlns="http://www.w3.org/2000/svg" width="346.667" height="346.667" viewBox="0 0 260.000000 260.000000"><path d="M31.2.8c.2.5 11.5 11.5 25.2 24.5l25 23.7h17.4c12.2 0 17.3-.3 17-1.1-.2-.6-11.4-11.6-24.8-24.5L66.5.1H48.7C38.9 0 31 .4 31.2.8z"/><path d="M97 .4c0 .2 13.2 12.9 29.3 28.1 16 15.3 31.6 30.3 34.6 33.3 22.2 23 16.5 62.4-10.9 76.2-9.3 4.8-11.9 5-56.7 5H51V48.4L26.1 24.7C12.3 11.7.9 1 .6 1 .3 1 0 59.3 0 130.5V260h51l-.1-11.8-.1-11.7-24.4-23-24.5-23 71.8-.5 71.8-.6 9.6-2.6c35.2-9.6 58.3-33.3 67.1-68.6 3.1-12.3 3.1-34.1.1-46.2-8.4-33.3-29.8-56.6-61.7-67-10.9-3.6-22.9-5-43.8-5C105.9 0 97 .2 97 .4z"/></svg>