<svg xmlns="http://www.w3.org/2000/svg" width="439" height="439" viewBox="0 0 438.5 438.5"><path d="M414.4 24.1C398.3 8 379 0 356.3 0H82.2c-22.6 0-42 8-58.1 24.1S0 59.6 0 82.2v274.1c0 22.6 8 42 24.1 58.1s35.5 24.1 58.1 24.1h274.1c22.6 0 42-8 58.1-24.1s24.1-35.5 24.1-58.1V82.2c0-22.6-8-42-24.1-58.1zm-41.2 201.4h-50v181.3h-74.8V225.5H211V163h37.4v-37.4c0-26.8 6.3-47.1 18.8-60.8 12.6-13.7 33.3-20.6 62.2-20.6h50v62.5H348c-10.7 0-17.5 1.9-20.4 5.6-2.9 3.7-4.4 10.2-4.4 19.6V163h56.5l-6.5 62.5z"/></svg>