<svg xmlns="http://www.w3.org/2000/svg" width="612" height="792" viewBox="0 0 612 792"><path d="M498.7 473.9c11.2 11.4 35.5 30.5 31.1 50-4.1 17.9-30.7 11.4-56.7 12.4-29.6 1.3-47.1 1.9-64.9-12.4-8.4-6.8-13.3-14.8-21.3-23.8-7.3-8.1-16.5-22.7-29-22.1-22.5 1.1-15.5 32.5-23.4 53.9-125.2 19.7-175.5-57.6-219.8-132.6C93.2 363 62.2 285 62.2 285l88.4-.3s28.4 51.6 35.9 64.9c6.4 11.3 13.4 20.3 20.7 30.4 6.1 8.4 15.7 24.8 26.3 23.5 17.1-2.2 20.3-68.7 9.6-91-4.2-9-14.4-12.2-24.9-15.2 3.5-22.4 99.2-27 114.7-9.7 22.5 25.2-15.5 95.4 15.2 115.9 43.2-22.6 80.1-117.4 80.1-117.4l103.6.6s-16.2 51.2-33.2 73.9c-9.9 13.3-42.7 42.9-41.4 64.9 1 17.5 27.7 34.4 41.5 48.4zm78.5-359.5c-22.4-22.4-49.3-33.6-80.9-33.6H114.7c-31.5 0-58.5 11.2-80.9 33.6C11.4 136.7.2 163.7.2 195.2v381.6c0 31.5 11.2 58.5 33.6 80.9 22.4 22.4 49.4 33.6 80.9 33.6h381.6c31.5 0 58.5-11.2 80.9-33.6 22.4-22.4 33.6-49.4 33.6-80.9V195.2c0-31.5-11.2-58.5-33.6-80.8z" fill="#030104"/></svg>