<?xml version="1.0" encoding="utf-8"?>
<!-- Generator: Adobe Illustrator 19.0.0, SVG Export Plug-In . SVG Version: 6.00 Build 0)  -->
<svg version="1.1" id="Layer_1" xmlns="http://www.w3.org/2000/svg" xmlns:xlink="http://www.w3.org/1999/xlink" x="0px" y="0px"
	 viewBox="48.9 194 276 68" style="enable-background:new 48.9 194 276 68; fill: #005b53" xml:space="preserve">
<path d="M57.9,199.2c0,0,9.2,6.5,0,19.8c-8.3,12-13.2,24.8-4.1,34.3c2.7,2.8,5.8,4.2,9,4.5c-5.2-1.5-9.1-6.7-4.6-16
	c2.8-5.7,9.7-12.4,7.4-20.3c0,0,6.2,7.8,2,19.8c-1.9,5.4,6.6,6,4.3,0.1c-1.4-3.6,6.6,7.1,2.3,13.3c4-2.8,6.2-7.4,7.8-12.3
	C86.5,228.5,80.5,206.1,57.9,199.2z"/>
<path d="M228.3,242.5c1.6,4.9,3.8,9.5,7.8,12.3c-4.3-6.2,3.7-16.9,2.3-13.3c-2.3,5.9,3.8,7.7,7,0.5c4.4-9.9-4.7-19.7-4.7-19.7
	c6.1,3.2,12.6,6.9,15,17.2c2.4,10.2-3,17-8.2,18.5c3.2-0.3,6.4-1.7,9-4.5c9.2-9.5,4.2-22.3-4.1-34.3c-9.2-13.3,0-19.8,0-19.8
	C229.8,206.1,223.8,228.5,228.3,242.5z"/>
<path d="M290.9,242.5c1.6,4.9,3.8,9.5,7.8,12.3c-4.3-6.2,3.7-16.9,2.3-13.3c-2.3,5.9,6.2,5.3,4.3-0.1c-4.2-11.9,2-19.8,2-19.8
	c-1.9,11.5,2.6,15.9,3.2,16.3c1.3,0.9,3.2,1.3,3.7-1.5c6.9,11.3,1.1,20-4,21.5c3.2-0.3,6.4-1.7,9-4.5c9.2-9.5,6.6-18.7-1.7-30.7
	c-6.7-9.4-3.1-25.4-3.1-25.4C291.4,212.6,286.4,228.5,290.9,242.5z"/>
<path d="M128.2,199.2c0,0-24.2,31.1-9.1,54.1c3.1,3.5,5.8,4.2,9,4.5c-3.6-1-7.1-8.4-7.4-14.4c-0.3-8.2,2.3-14.9,9.3-24.7
	c0,0-5,12.2,6.4,20.6c6.2,4.5,4.4,13.4,3,15.5c4-2.8,6.2-7.4,7.8-12.3C151.8,228.5,129.7,215.3,128.2,199.2z"/>
<path d="M182,199.2c0,0-1.2,10.7-10.8,25.8c-6.4,10.1-4.8,20.6,1.7,28.4c3.1,3.5,5.8,4.2,9,4.5c-3.6-1-8.5-6.9-8.2-12.4
	c0.6-12,10-12.4,10-28.6c0,0,7.2,9.7,3.8,17c-1.8,4-0.8,8.4,3.5,8.7c3.8,0.3,5.8,7.6,2.3,12c4-2.8,6.2-7.4,7.8-12.3
	C205.6,228.5,200.1,209.6,182,199.2z"/>
</svg>
