<svg xmlns="http://www.w3.org/2000/svg" viewBox="0 0 395.7 395.7"><path d="M347.5 29.7C327.2 9.4 309.4 0 291.4 0c-18.3 0-36.7 9.9-57.9 31.1l-50.2 50.2c-6.8 6.8-5 13.8-3.9 16.5 1.5 3.7 4.1 6.3 6.6 8.8l20.3 20.3-21 21.2-17-17c-3.8-3.8-8.8-5.8-14.1-5.8s-10.4 2.1-14.1 5.8l-51.6 51.6c-7.8 7.8-7.8 20.5 0 28.3l17 17-77.4 77.2c-6 6-9.4 13.8-9.5 22.2-.2 8.5 3 16.5 8.9 22.4 5.7 5.7 13.4 8.9 21.6 8.9a32 32 0 0 0 22.9-9.6l64.3-64.3v90.9H72.8c-5.5 0-10 4.5-10 10s4.5 10 10 10h146.8c5.5 0 10-4.5 10-10s-4.5-10-10-10h-63.4v-96.9l10 10c3.8 3.8 8.8 5.8 14.1 5.8 5.4 0 10.4-2.1 14.1-5.8l51.6-51.6c3.8-3.8 5.8-8.8 5.8-14.1 0-5.3-2.1-10.4-5.8-14.1l-17-17 21.1-21.1 21.5 21.5c3.3 3.3 7 7 12.9 7 5.3 0 9-3.1 11.3-5.4l50.2-50.2C366.8 123 376.7 105 377 87c.6-18.5-8.9-36.6-29.5-57.3zM57.8 335c-2.4 2.4-5.5 3.7-8.8 3.7-2.9 0-5.6-1.1-7.5-3-2-2-3.1-4.8-3-7.8.1-3.2 1.4-6.2 3.7-8.5l77.3-77.3 15.6 15.6L57.8 335zm122.6-60.4l-77.8-77.8 51.6-51.6L232 223l-51.6 51.6zm34.6-96.8l-15.6-15.6 21.1-21.1 15.6 15.6-21.1 21.1zm117-48.3l-47.4 47.4-84.3-84.3 47.4-47.4C264.8 28 278.7 20 291.4 20c12.4 0 25.7 7.6 42 23.8 16.5 16.5 24.1 30.1 23.8 42.6-.3 12.5-8.3 26.2-25.2 43.1z"/><path d="M151.9 176.2l1.5 1.5c.8.8 1.2 1.8 1.2 2.8 0 1.1-.4 2.1-1.2 2.8L134.7 202c-1.1 1.1-1.8 2.6-1.8 4.2s.6 3.1 1.8 4.2l.1.1c1.1 1.1 2.6 1.8 4.2 1.8s3.1-.6 4.2-1.8l18.7-18.7c.8-.8 1.8-1.2 2.8-1.2s2.1.4 2.8 1.2l1.6 1.6c1.2 1.2 2.8 1.9 4.5 1.9 1.4 0 2.6-.5 3.5-1.4 1-1 1.5-2.4 1.4-4-.1-1.5-.8-2.9-1.9-4l-17.4-17.4c-1.2-1.2-2.8-1.9-4.5-1.9-1.4 0-2.6.5-3.5 1.4-1.9 2.3-1.7 5.9.7 8.2zm11.3 62.8l1.3 1.3c1.4 1.4 3.6 2.2 5.8 2.2 1.2 0 2.4-.3 3.4-.7l33.5-16.6c1.5-.7 2.4-1.9 2.7-3.3.2-1.4-.3-2.9-1.5-4l-.6-.6c-1.4-1.4-3.5-2.2-5.6-2.2-1.3 0-2.5.3-3.5.8l-13.2 7.1c-4.7 2.5-9.8 5.7-9.9 5.7-.3.2-.6.3-.8.5 2.2-3.5 3.9-6.5 3.9-6.5 1.3-2.4 3.5-6.3 4.9-8.7l4.7-8.6c1.5-2.8 1-6.9-1.3-9.1l-.8-.8c-1-1-2.2-1.5-3.4-1.5-1.7 0-3.2 1-4 2.7l-17 33.1c-1.5 2.9-.9 7 1.4 9.2z"/></svg>