<svg xmlns="http://www.w3.org/2000/svg" viewBox="0 0 512 512"><path d="M298.6 405.3c0-5.9-4.8-10.7-10.7-10.7H160c-5.9 0-10.7 4.8-10.7 10.7-5.9 0-10.7 4.8-10.7 10.7v42.7c0 5.9 4.8 10.7 10.7 10.7 0 5.9 4.8 10.7 10.7 10.7h128c5.9 0 10.7-4.8 10.7-10.7 5.9 0 10.7-4.8 10.7-10.7V416c-.1-5.9-4.9-10.7-10.8-10.7zM288 450.8c-3.2 1.9-5.9 4.6-7.8 7.8H167.8c-1.9-3.2-4.6-5.9-7.8-7.8v-27.1c3.2-1.9 5.9-4.6 7.8-7.8h112.4c1.9 3.2 4.6 5.9 7.8 7.8v27.1z"/><path d="M426.6 448h-32v-10.7c0-5.9-4.8-10.7-10.7-10.7h-32v-42.7h10.7c5.9 0 10.7-4.8 10.7-10.7 0-5.9-4.8-10.7-10.7-10.7H234.7v-10.7h85.4c5.9 0 10.7-4.8 10.7-10.7s-4.8-10.7-10.7-10.7h-72.2c6-30.9 7.6-62.9 8-77.6 27.4-5.1 52.7-16.7 73.1-34 28.6-24.2 44.4-56.6 44.4-91.1 0-34.5-15.8-66.9-44.4-91.1C300.8 13.1 263.5 0 224 0c-39.6 0-76.8 13.1-104.9 36.9-28.6 24.2-44.3 56.5-44.4 90.9v.3c0 34.5 15.8 66.9 44.4 91.1 20.4 17.3 45.6 28.9 73.1 34 .2 5.8.5 14.2 1.2 24.2h-24.5c-4.4-12.4-16.3-21.3-30.2-21.3-17.6 0-32 14.3-32 32 0 13.9 8.9 25.8 21.3 30.2v12.5c-5.9 0-10.7 4.8-10.7 10.7s4.8 10.7 10.7 10.7h85.4v10.7H85.3c-5.9 0-10.7 4.8-10.7 10.7 0 5.9 4.8 10.7 10.7 10.7H96V491H85.3c-5.9 0-10.7 4.8-10.7 10.7s4.8 10.7 10.7 10.7h277.3c5.9 0 10.7-4.8 10.7-10.7s-4.8-10.7-10.7-10.7h-10.7v-42.7h21.3V459c0 5.9 4.8 10.7 10.7 10.7h42.7c5.9 0 10.7-4.8 10.7-10.7s-4.8-11-10.7-11zM234.7 234.3v-43.5c6.6-1.6 12.6-4.6 17.6-8.6 4.3 3.6 9.1 7.9 14.7 13 9.3 8.7 18 17.3 24.2 23.7-16.8 8.5-36 14-56.5 15.4zm74.8-27.1c-6.4-6.6-16.8-17.2-28.4-28-6.1-5.7-11.6-10.5-16.5-14.6 1.3-3.8 2-7.8 2-12 0-.7 0-1.5-.1-2.2 14.2-2.7 28.9-4.8 37.6-5.9 18.4-2.4 35.9-4 47-4.9-3.4 26.7-18.8 50.5-41.6 67.6zm41.9-89c-11.2.9-29.9 2.7-49.8 5.2-16.5 2.1-30.7 4.4-42.6 6.8-2.2-3-4.9-5.6-7.9-7.9 13.2-21.9 27.3-37.8 38.4-48.3 10.8-10.2 20.3-16.9 25.9-20.5 20.1 17 33.3 39.6 36 64.7zM234.7 21.7c22.9 1.6 44.2 8.2 62.1 18.6-15.4 11-40.2 32.4-62.1 67.8V21.7zm-21.4 0v86.1c-21.6-34.8-46.7-56.3-62.2-67.4 18-10.4 39.2-17.1 62.2-18.7zm-80.8 31.8c12.1 7.9 41 29.3 64.6 68.7-5.5 4.2-9.9 9.6-12.6 15.8-27.9-10-69.1-16.6-87.9-19.2 2.5-25.4 15.8-48.1 35.9-65.3zm3.7 152.1c-21.4-16.8-35.8-39.7-39.4-65.2 7.4 1.1 17.3 2.6 28.1 4.6 25 4.6 44.5 9.8 57.2 14.9.2 1.2.6 2.4.9 3.6-5.5 4.2-11.6 9.3-18.5 15.4-11.9 10.5-22.3 20.7-28.3 26.7zm2.5 93c-5.9 0-10.7-4.8-10.7-10.7 0-5.9 4.8-10.7 10.7-10.7 5.9 0 10.7 4.8 10.7 10.7-.1 6-4.9 10.7-10.7 10.7zm10.6 32v-12.5c9.1-3.2 16.3-10.4 19.5-19.5h26.4c1.2 10.3 2.7 21.2 4.8 32h-50.7zm64-96.3c-21.6-1.5-41.7-7.5-58.9-16.8 12.2-12.2 27-25.7 40.4-36.2 5.1 4.5 11.5 7.8 18.5 9.4v43.6zm-10.6-81.6c0-9.9 9.6-18 21.3-18 11.8 0 21.3 8.1 21.3 18s-9.6 18-21.3 18c-11.8 0-21.3-8.1-21.3-18zm31.7 103c-.6 15.9-2.4 46.7-8.3 75h-4.3c-5.9-28.3-7.7-59.1-8.3-75a181.414 181.414 0 0 0 20.9 0zm96.2 234.9H117.3V384h213.3v106.6z"/></svg>