<svg xmlns="http://www.w3.org/2000/svg" viewBox="0 0 512 512"><path d="M472.1 81.1c-27-27.6-63-42.8-101.5-42.8-37.9 0-73.6 14.8-100.4 41.6l-13.9 13.9-13.9-13.9C215.6 53.1 179.9 38.3 142 38.3c-37.9 0-73.6 14.8-100.4 41.6C14.8 106.8 0 142.4 0 180.4S14.8 254 41.6 280.8l177.5 177.5c10.3 10.3 23.7 15.4 37.2 15.4 13.5 0 26.9-5.1 37.2-15.4L469.8 282c55.4-55.4 56.4-145.5 2.3-200.9zm-20.9 182.2L274.8 439.7c-10.3 10.3-26.9 10.3-37.2 0L60.2 262.2c-21.9-21.9-33.9-50.9-33.9-81.8s12-60 33.9-81.8c21.9-21.9 50.9-33.9 81.8-33.9s60 12 81.8 33.9l13.9 13.9-21.2 21.2c-5.1 5.1-5.1 13.5 0 18.6 2.6 2.6 5.9 3.8 9.3 3.8 3.4 0 6.7-1.3 9.3-3.9l53.7-53.7c21.9-21.9 50.9-33.9 81.8-33.9 31.4 0 60.8 12.4 82.7 34.8 44.1 45.2 43.1 118.7-2.1 163.9z"/><path d="M466.3 174.4c-1.4-23.4-11.3-45.4-27.9-61.9-11.7-11.7-26.2-20.2-42-24.6-7-1.9-14.2 2.1-16.2 9.1-1.9 7 2.1 14.2 9.1 16.2 11.4 3.2 22 9.4 30.5 17.9 12 12 19.2 28 20.2 44.9.4 7 6.2 12.3 13.1 12.3h.8c7.3-.4 12.8-6.6 12.4-13.9z"/></svg>