<svg xmlns="http://www.w3.org/2000/svg" viewBox="0 0 512 512"><path d="M479.4 89.1H32.6c-18 0-32.6 14.7-32.6 32.6v268.5c0 18 14.6 32.6 32.6 32.6h446.8c18 0 32.6-14.6 32.6-32.6V121.7c0-17.9-14.6-32.6-32.6-32.6zm10.9 301.2c0 6-4.9 10.9-10.9 10.9H32.6c-6 0-10.9-4.9-10.9-10.9V121.7c0-6 4.9-10.9 10.9-10.9h446.8c6 0 10.9 4.9 10.9 10.9v268.6z"/><path d="M422.1 184.5H305.4c-6 0-10.9 4.9-10.9 10.9s4.9 10.9 10.9 10.9h116.7c6 0 10.9-4.9 10.9-10.9s-4.9-10.9-10.9-10.9zm0 60.6H305.4c-6 0-10.9 4.9-10.9 10.9s4.9 10.9 10.9 10.9h116.7c6 0 10.9-4.9 10.9-10.9s-4.9-10.9-10.9-10.9zm0 60.7H305.4c-6 0-10.9 4.9-10.9 10.9s4.9 10.9 10.9 10.9h116.7c6 0 10.9-4.9 10.9-10.9 0-6.1-4.9-10.9-10.9-10.9zm-221.4-15.6c-.2 0-20.1.8-25.5-20.7 7.3-5.7 13.4-13.7 17.7-23.1.3 0 .6.1 1 .1 3 0 5.8-1.4 7.7-3.8 9.1-11.7 13.9-26.9 13.4-42.9-1.1-33-24-59-52.3-59.3h-2c-6.9-3-14.1-4.4-21.5-4.1-15.9.5-30.5 8.4-41.2 22.2-10.2 13.2-15.4 30.5-14.9 48.5.1 3.1.3 5.9.7 8.5 1.1 7.7 3.2 15.1 6.3 21.9 1.5 3.3 4.7 5.5 8.3 5.7 1 .1 1.9 0 2.9-.3 4.4 11 11.1 20.1 19.2 26.5-5.3 21.5-25.3 20.7-25.5 20.8-21.4.7-38.6 18.3-38.6 39.9v39.6c0 5.4 4.4 9.8 9.8 9.8h163.3c5.4 0 9.8-4.4 9.8-9.8v-39.6c0-21.6-17.2-39.2-38.6-39.9zm-97.4-76.4c0-.3-.1-.6-.1-.9-.3-2-.5-4.1-.5-6.4-.4-13.5 3.4-26.3 10.8-36 7-9.1 16.3-14.3 26.3-14.6.3 0 8.1-.6 14.7 3.3 1.4.8 3.1 1.1 4.7 1 .2 0 3.1-.2 3.3-.2 17.5.1 32.4 18.2 33.1 40.4.1 2.5 0 5-.3 7.5-6.5-11.1-16.1-19.7-27.5-24.5-2.5-1-5.2-1-7.7 0-2.4 1.1-4.4 3.1-5.3 5.6-.8 2-1.7 4-2.7 5.9-2.6 4.6-7.8 7.3-13.7 7.1h-3.5c-5.7.2-11.3 1.3-16.7 3.3-5.5 2-10.4 4.9-14.9 8.5zm13.6 14.2c2.5-1.8 5.2-3.2 8-4.4 5.1-2.2 11.9-2 12.6-2 12.6.4 24.1-5.5 30.5-15.5 5 3.8 9.1 9 12 15.1-3 22-16.7 38.7-32.2 38.7-13.8 0-26.2-13.1-30.9-31.9zm21.5 50.3c3.1.7 6.2 1.1 9.4 1.1s6.4-.4 9.5-1.1c3.2 10.1 9.8 18.6 18.5 24.2-4.2 11.5-15.2 19.5-27.9 19.5s-23.7-8.1-27.9-19.5c8.7-5.6 15.3-14.1 18.4-24.2zM76 359.9v-29.8c0-11.2 9.1-20.3 20.3-20.3.2 0 3.8-.2 5.3-.4 7 19 25.3 32.3 46.2 32.3 21 0 39.3-13.3 46.2-32.3 1.5.2 5.1.4 5.3.4 11.2 0 20.3 9.1 20.3 20.3v29.8H76z"/></svg>