<svg xmlns="http://www.w3.org/2000/svg" viewBox="0 0 512 512"><path d="M372.3 50.8H28.8C12.9 50.8 0 63.7 0 79.6v206.1c0 15.9 12.9 28.8 28.8 28.8h22.3v76.7c0 4.9 2.9 9.3 7.5 11.2 1.5.6 3.1.9 4.6.9 3.1 0 6.2-1.2 8.5-3.5l85.3-85.2h17.1c6.7 0 12.1-5.4 12.1-12.1 0-6.7-5.4-12.1-12.1-12.1h-22.9c-2.8.2-5.6 1.3-7.7 3.5l-68.2 68.2s0-60.4-.1-60.7c-.5-6.2-5.7-11-12-11H28.8c-2.6 0-4.7-2.1-4.7-4.7V79.6c0-2.6 2.1-4.7 4.7-4.7h343.5c2.6 0 4.7 2.1 4.7 4.7v79.1c0 6.7 5.4 12.1 12.1 12.1s12.1-5.4 12.1-12.1V79.6c-.1-15.9-13-28.8-28.9-28.8z"/><path d="M483.2 198.5H242.8c-15.9 0-28.8 12.9-28.8 28.8v140.6c0 15.9 12.9 28.8 28.8 28.8h150.5l61 61c2.3 2.3 5.4 3.5 8.5 3.5 1.6 0 3.1-.3 4.6-.9 4.5-1.9 7.5-6.3 7.5-11.2v-52.4h8.3c15.9 0 28.8-12.9 28.8-28.8V227.3c0-15.9-12.9-28.8-28.8-28.8zm4.6 169.4c0 2.6-2.1 4.7-4.7 4.7h-20.4c-6.4 0-11.6 4.9-12 11.1l-.1 36.3-43.9-43.9-.1-.1c-.2-.2-.3-.3-.5-.4-2.1-1.9-4.9-3-8-3H242.8c-2.6 0-4.7-2.1-4.7-4.7V227.3c0-2.6 2.1-4.7 4.7-4.7h240.4c2.6 0 4.7 2.1 4.7 4.7v140.6z"/><path d="M363 285.5c-6.7 0-12.1 5.4-12.1 12.1 0 6.7 5.4 12.1 12.1 12.1 6.7 0 12.1-5.4 12.1-12.1-.1-6.7-5.5-12.1-12.1-12.1zm-52.5-154.9H90.7c-6.7 0-12.1 5.4-12.1 12.1s5.4 12.1 12.1 12.1h219.8c6.7 0 12.1-5.4 12.1-12.1s-5.5-12.1-12.1-12.1zm-136.4 79.9H90.7c-6.7 0-12.1 5.4-12.1 12.1 0 6.7 5.4 12.1 12.1 12.1h83.4c6.7 0 12.1-5.4 12.1-12.1s-5.5-12.1-12.1-12.1zm132.7 75c-6.7 0-12.1 5.4-12.1 12.1 0 6.7 5.4 12.1 12.1 12.1 6.7 0 12.1-5.4 12.1-12.1 0-6.7-5.4-12.1-12.1-12.1zm112.3 0c-6.7 0-12.1 5.4-12.1 12.1 0 6.7 5.4 12.1 12.1 12.1 6.7 0 12.1-5.4 12.1-12.1 0-6.7-5.5-12.1-12.1-12.1z"/></svg>