<svg xmlns="http://www.w3.org/2000/svg" viewBox="0 0 512 512"><path d="M422.8 132.4H89.2c-6.1 0-11 4.9-11 11v166.4c0 6.1 4.9 11 11 11s11-4.9 11-11V154.4h311.7v155.4c0 6.1 4.9 11 11 11s11-4.9 11-11V143.4c0-6.1-5-11-11.1-11z"/><path d="M502.1 349.2h-20.3V117.8c0-18.4-14.9-33.3-33.3-33.3h-385c-18.4 0-33.3 14.9-33.3 33.3v231.4H9.9c-5.5 0-9.9 4.4-9.9 9.9v19.5c0 27 21.9 48.9 48.9 48.9h414.2c27 0 48.9-21.9 48.9-48.9v-19.5c0-5.5-4.4-9.9-9.9-9.9zM52.2 117.8c0-6.2 5.1-11.3 11.3-11.3h385c6.2 0 11.3 5.1 11.3 11.3v231.4H310.5c-.7 0-1.4 0-2.1.2-4.7.9-8 5-8 9.7 0 8.4-6.8 15.2-15.2 15.2h-58.4c-8.4 0-15.2-6.8-15.2-15.2 0-5.6-4.6-10-10.1-9.9H52.2V117.8zm440 260.8c0 16-13.1 29.1-29.1 29.1H48.9c-16 0-29.1-13-29.1-29.1V369h173.4c4.3 14.5 17.7 25.1 33.6 25.1h58.4c15.9 0 29.3-10.6 33.6-25.1h173.4v9.6z"/><path d="M272.3 196.5c-4.3-4.3-11.3-4.3-15.6 0l-69.3 69.3c-4.3 4.3-4.3 11.3 0 15.6 2.2 2.2 5 3.2 7.8 3.2s5.6-1.1 7.8-3.2l69.3-69.3c4.3-4.4 4.3-11.3 0-15.6zm41.1 40.1c-4.3-4.3-11.3-4.3-15.6 0l-27.6 27.6c-4.3 4.3-4.3 11.3 0 15.6 2.2 2.2 5 3.2 7.8 3.2s5.6-1.1 7.8-3.2l27.6-27.6c4.3-4.3 4.3-11.3 0-15.6z"/></svg>