<svg xmlns="http://www.w3.org/2000/svg" viewBox="0 0 512 512"><path d="M472.2 201.7c9.3-9 12.5-22.3 8.5-34.6s-14.4-21.1-27.3-23l-112-16.3c-2.2-.3-4.1-1.7-5.1-3.7l-50-101.5C280.6 11 269 3.8 256 3.8c-12.9 0-24.5 7.2-30.3 18.8l-50.1 101.5c-1 2-2.9 3.4-5.1 3.7l-112 16.3c-12.8 1.9-23.3 10.7-27.3 23s-.7 25.6 8.5 34.6l81.1 79c1.6 1.6 2.3 3.8 1.9 6l-19.1 111.6c-2.2 12.8 3 25.4 13.4 33 10.5 7.6 24.1 8.6 35.6 2.6l100.2-52.7c2-1 4.3-1 6.3 0l100.2 52.7c5 2.6 10.4 3.9 15.7 3.9 7 0 13.9-2.2 19.8-6.5 10.5-7.6 15.6-20.3 13.4-33l-19.1-111.6c-.4-2.2.4-4.4 1.9-6l81.2-79zm-109.6 89.6l19.1 111.6c.6 3.7-1.7 5.9-2.7 6.6-1 .7-3.8 2.3-7.1.5l-100.2-52.7c-4.9-2.6-10.3-3.9-15.7-3.9-5.4 0-10.8 1.3-15.7 3.9L140.1 410c-3.4 1.8-6.1.2-7.1-.5s-3.3-2.9-2.7-6.6l19.1-111.6c1.9-11-1.7-22.1-9.7-29.9l-81.1-79c-2.7-2.6-2.1-5.7-1.7-6.9.4-1.2 1.7-4.1 5.5-4.6l112-16.3c11-1.6 20.5-8.5 25.4-18.5l50.1-101.5c1.7-3.4 4.8-3.8 6.1-3.8 1.3 0 4.4.4 6.1 3.8l50.1 101.5c4.9 10 14.4 16.9 25.4 18.5l112 16.3c3.7.5 5.1 3.4 5.5 4.6.4 1.2 1 4.3-1.7 6.9l-81.1 79c-8 7.7-11.6 18.9-9.7 29.9zm51.2-268.7c-6-4.4-14.5-3-18.9 3l-14.3 19.7c-4.4 6-3 14.5 3 18.9 2.4 1.7 5.2 2.6 7.9 2.6 4.2 0 8.3-1.9 10.9-5.6l14.3-19.7c4.5-6 3.1-14.5-2.9-18.9zM131.4 45.3l-14.3-19.7c-4.4-6-12.8-7.4-18.9-3-6 4.4-7.4 12.8-3 18.9l14.3 19.7c2.6 3.6 6.8 5.6 10.9 5.6 2.8 0 5.5-.8 7.9-2.6 6.1-4.5 7.4-12.9 3.1-18.9zM49.6 306.8c-2.3-7.1-9.9-11-17-8.7l-23.2 7.5c-7.1 2.3-11 9.9-8.7 17 1.9 5.7 7.1 9.3 12.8 9.3 1.4 0 2.8-.2 4.2-.7l23.2-7.5c7.1-2.2 11-9.8 8.7-16.9zm206.4 150c-7.5 0-13.5 6-13.5 13.5v24.4c0 7.5 6 13.5 13.5 13.5s13.5-6 13.5-13.5v-24.4c0-7.5-6-13.5-13.5-13.5zm246.7-151.1l-23.2-7.5c-7.1-2.3-14.7 1.6-17 8.7-2.3 7.1 1.6 14.7 8.7 17l23.2 7.5c1.4.5 2.8.7 4.2.7 5.7 0 11-3.6 12.8-9.3 2.2-7.2-1.6-14.8-8.7-17.1z"/></svg>