<svg xmlns="http://www.w3.org/2000/svg" viewBox="0 0 383.6 383.6"><path d="M359.4 62.6H239.7c-.9-6-3-11.6-5.9-16.6l99.9-31.3c4-1.2 6.2-5.4 4.9-9.4-1.2-4-5.4-6.2-9.4-4.9L223.6 33.5c-8.5-7.4-19.6-11.9-31.8-11.9s-23.3 4.5-31.8 11.9L54.3.3c-4-1.2-8.2 1-9.4 4.9-1.2 4 1 8.2 4.9 9.4l99.9 31.3c-2.9 5-4.9 10.6-5.9 16.6H24.2c-12.4 0-22.6 10.1-22.6 22.6V339c0 12.4 10.1 22.6 22.6 22.6h3.6v14.5c0 4.1 3.4 7.5 7.5 7.5s7.5-3.4 7.5-7.5v-14.5h298v14.5c0 4.1 3.4 7.5 7.5 7.5s7.5-3.4 7.5-7.5v-14.5h3.6c12.4 0 22.6-10.1 22.6-22.6V85.1c0-12.4-10.2-22.5-22.6-22.5zm-167.6-26c15.9 0 29.2 11.1 32.6 26h-65.3c3.5-14.9 16.8-26 32.7-26zM367 339c0 4.2-3.4 7.6-7.6 7.6H24.2c-4.2 0-7.6-3.4-7.6-7.6V85.1c0-4.2 3.4-7.6 7.6-7.6h335.2c4.2 0 7.6 3.4 7.6 7.6V339z"/><path d="M347 103.7c-.6-3.4-3.4-5.9-6.8-6.2-98.5-8.3-198.4-8.3-296.9 0-3.4.3-6.2 2.8-6.8 6.2-11.9 69.6-11.9 140.2 0 209.8.6 3.4 3.4 5.9 6.8 6.2 49.2 4.1 98.8 6.2 148.4 6.2 49.6 0 99.2-2.1 148.4-6.2 3.4-.3 6.2-2.8 6.8-6.2 12-69.7 12-140.2.1-209.8zm-13.9 201.5c-93.8 7.6-188.9 7.6-282.7 0C40 241.1 40 176.1 50.4 112c93.8-7.6 188.9-7.6 282.7 0 10.4 64.1 10.4 129 0 193.2z"/><path d="M321.1 168.7c-4.1.2-7.3 3.8-7.1 7.9 1.5 26.3 1.1 53-1.1 79.3-.3 4.1 2.7 7.8 6.9 8.1h.6c3.9 0 7.1-3 7.5-6.9 2.2-27 2.6-54.3 1.1-81.3-.2-4.2-3.8-7.3-7.9-7.1zm-1.4-9.1h.7c4.1-.4 7.1-4.1 6.7-8.2-.7-7.7-1.7-15.5-2.7-23.2-.6-4.1-4.4-7-8.4-6.4-4.1.6-7 4.3-6.4 8.4 1 7.5 1.9 15.1 2.6 22.6.4 3.9 3.7 6.8 7.5 6.8zm37.9 166.2c-5.8-3.8-13.4 1.8-11.3 8.4.9 3 3.7 5.2 6.8 5.3 3.3.2 6.3-1.9 7.4-5 1.2-3.1 0-6.8-2.9-8.7z"/></svg>