<svg xmlns="http://www.w3.org/2000/svg" viewBox="0 0 512 512"><path d="M466.5 49.4c-7.1-8.3-17.4-13.1-28.3-13.1h-35.8V25.1c0-13.8-11.3-25.1-25.1-25.1H134.7c-13.8 0-25.1 11.3-25.1 25.1v11.2H73.8c-10.9 0-21.2 4.8-28.3 13.1-7 8.2-10 19-8.3 29.6 9.4 57.8 45.8 108.9 97.4 136.9 4.7 11.3 10.1 22.1 16 32.1 19 32 42.6 54.1 68.6 64.8 2.6 26.6-15.1 51.9-41.8 57.9h-.2c-5.2 1.2-9.1 5.9-9.1 11.5v54.4h-22c-19.6 0-35.5 15.9-35.5 35.5v28.1c0 6.5 5.3 11.9 11.9 11.9h268.1c6.5 0 11.9-5.3 11.9-11.8v-28.1c0-19.6-15.9-35.5-35.5-35.5h-22v-54.5c0-5.6-3.9-10.3-9.1-11.5h-.1c-26.9-6.1-44.7-31.5-41.8-58.4 25.5-10.9 48.8-32.8 67.5-64.3 5.9-10 11.3-20.8 16-32.1 51.6-28 88-79.1 97.4-136.9 1.6-10.6-1.5-21.4-8.4-29.6zM60.7 75.2c-.6-3.8.4-7.5 2.9-10.5 2.6-3 6.3-4.7 10.2-4.7h35.8v21.8c0 34.2 4.4 67.3 12.6 97.6-32.5-25.7-54.8-63-61.5-104.2zm306.2 385c6.5 0 11.9 5.3 11.9 11.9v16.2H134.4v-16.2c0-6.5 5.3-11.8 11.9-11.8h220.6zM321.2 394v42.5H192V394h129.2zM223 370.3c2.9-3.2 5.6-6.7 8-10.5 7.9-12.3 12-26.4 12.2-40.7 4.2.6 8.5.9 12.7.9 4.7 0 9.3-.4 13.9-1 .3 19.2 7.8 37.5 20.3 51.3H223zM378.7 81.8c0 58.4-13.4 113.1-37.7 154-23.2 39-53.4 60.5-85 60.5s-61.8-21.5-85-60.5c-24.3-41-37.7-95.7-37.7-154V25.1c0-.8.6-1.4 1.4-1.4h242.6c.8 0 1.4.6 1.4 1.4v56.7zm72.6-6.6c-6.7 41.2-29.1 78.5-61.6 104.2 8.3-30.3 12.6-63.4 12.6-97.6V60h35.8c3.9 0 7.7 1.7 10.2 4.7 2.6 3 3.7 6.7 3 10.5z"/><path d="M327.9 121.7c-1.4-4.3-5.1-7.4-9.6-8.1l-35.8-5.2-16-32.4c-2-4-6.1-6.6-10.6-6.6s-8.6 2.6-10.6 6.6l-16 32.4-35.8 5.2c-4.5.6-8.2 3.8-9.6 8.1-1.4 4.3-.2 9 3 12.1l25.9 25.2-6.1 35.6c-.8 4.4 1.1 8.9 4.7 11.6 3.6 2.7 8.5 3 12.5.9l32.1-16.8 32 16.8c1.7.9 3.6 1.4 5.5 1.4 2.5 0 4.9-.8 7-2.3 3.7-2.7 5.5-7.1 4.7-11.6l-6.1-35.6 25.9-25.2c3.2-3.1 4.3-7.9 2.9-12.1zm-49.8 24.7c-2.8 2.7-4.1 6.6-3.4 10.5l3.1 18.1-16.2-8.5c-1.7-.9-3.6-1.4-5.5-1.4s-3.8.5-5.5 1.4l-16.2 8.5 3.1-18.1c.7-3.8-.6-7.8-3.4-10.5L221 133.6l18.2-2.6c3.9-.6 7.2-3 8.9-6.5l8.1-16.5 8.1 16.5c1.7 3.5 5.1 5.9 8.9 6.5l18.2 2.6-13.3 12.8z"/></svg>