<svg xmlns="http://www.w3.org/2000/svg" viewBox="0 0 512 512"><path d="M449.5 137.6V55.2c0-9.1-4.7-17.2-12.5-21.8-7.8-4.6-17.3-4.7-25.3-.2-76 42.5-158.7 67.3-245.8 73.8-.7 0-79.4.4-79.4.4-19.8 0-36.1 14.9-38.4 34.1h-16C14.4 141.5 0 155.9 0 173.6v70.5c0 17.7 14.4 32.1 32.1 32.1h16.2c1.6 13.8 10.5 25.4 22.8 30.8l57.5 158.6c3.6 9.9 13.1 16.5 23.6 16.5h57.7c8.2 0 15.9-4 20.6-10.7 4.7-6.7 5.8-15.3 3-23l-49.4-136.2c80.5 8.4 157 32.6 227.8 72.2 3.9 2.2 8.2 3.3 12.4 3.3 4.4 0 8.8-1.2 12.8-3.5 7.8-4.6 12.5-12.7 12.5-21.8V280c35.1-4.6 62.4-34.8 62.4-71.2 0-36.4-27.3-66.6-62.5-71.2zM48 251.4H32.1c-4 0-7.3-3.3-7.3-7.3v-70.5c0-4 3.3-7.3 7.3-7.3H48v85.1zm32.9 32.8c-4.8-2.2-8.2-7-8.2-12.7V146c0-7.7 6.2-13.9 13.9-13.9h67.3v153.3H85.7c-2.5-.3-3-.4-4.8-1.2zm129.2 172.7c0 .1.1.2 0 .3-.1.2-.2.2-.3.2h-57.7c-.1 0-.3-.1-.3-.2l-53.3-147h58.4l53.2 146.7zm214.7-94.6c0 .2 0 .3-.3.5s-.5.1-.7 0c-76-42.5-158.5-68-245.2-76v-156c86.7-7.9 169.2-33.5 245.2-76 .2-.1.3-.2.7 0 .3.2.3.3.3.5v307zm24.7-107.4v-92.2c21.5 4.3 37.8 23.3 37.8 46.1 0 22.7-16.3 41.8-37.8 46.1z"/></svg>