<svg xmlns="http://www.w3.org/2000/svg" viewBox="0 0 512 512"><path d="M477.6 128.1C443.4 68.9 388.3 26.5 322.2 8.8 256.2-8.9 187.3.2 128.1 34.4 68.9 68.6 26.5 123.8 8.8 189.8c-17.7 66-8.6 135 25.6 194.2 34.2 59.1 89.4 101.5 155.4 119.2 22 5.9 44.4 8.8 66.6 8.8 44.3 0 88.1-11.6 127.5-34.4 59.2-34.2 101.5-89.4 119.2-155.4 17.8-66 8.7-135-25.5-194.1zm-.2 187.2c-15.8 59.1-53.8 108.6-106.8 139.2-53 30.6-114.8 38.7-174 22.9C137.5 461.6 88 423.6 57.4 370.6c-30.6-53-38.7-114.8-22.9-174C50.4 137.5 88.4 88.1 141.4 57.5c35.3-20.4 74.5-30.8 114.2-30.8 19.9 0 40 2.6 59.7 7.9 59.1 15.8 108.6 53.8 139.2 106.8 30.6 53 38.8 114.8 22.9 173.9z"/><path d="M378.8 231.9l-164.5-95c-8.7-5-19.2-5-27.9 0s-13.9 14.1-13.9 24.2v190c0 10.1 5.2 19.1 13.9 24.2 4.4 2.5 9.2 3.8 13.9 3.8 4.8 0 9.6-1.3 13.9-3.8l164.5-95c8.7-5 13.9-14.1 13.9-24.2.1-10.2-5.1-19.2-13.8-24.2zm-13.3 25.2l-164.5 95c-.2.1-.6.4-1.2 0s-.6-.8-.6-1.1V161c0-.2 0-.7.6-1.1.2-.1.5-.2.6-.2.3 0 .5.1.6.2l164.5 95c.2.1.6.4.6 1.1 0 .7-.4 1-.6 1.1zm47.8-122.7C381.6 93.5 334 66 282.6 58.9c-7.3-1-14 4.1-15 11.4-1 7.3 4.1 14 11.4 15 44.5 6.1 85.8 29.9 113.2 65.4 2.6 3.4 6.6 5.2 10.5 5.2 2.8 0 5.7-.9 8.1-2.8 5.9-4.5 7-12.8 2.5-18.7z"/></svg>